<svg height="512" viewBox="0 0 512 512" width="512" xmlns="http://www.w3.org/2000/svg"><g id="filled_outline" data-name="filled outline"><rect fill="#cbcbcb" height="464" rx="16" width="320" x="96" y="24"/><path d="m96 56h320v368h-320z" fill="#3bd6d0"/><path d="m96 416h320v8h-320z" fill="#37c9c3"/><path d="m288 464h-56a8 8 0 0 1 0-16h56a8 8 0 0 1 0 16z" fill="#b9b9b9"/><g fill="#34bdb7"><rect height="112" rx="10.889" width="112" x="120" y="96"/><path d="m128 250.89v90.22a10.9 10.9 0 0 1 -10.89 10.89h-21.11v-112h21.11a10.9 10.9 0 0 1 10.89 10.89z"/><rect height="112" rx="10.889" width="112" x="264" y="96"/><path d="m272.572 322.971-16-40a8 8 0 0 1 1.028-7.771l24-32 12.8 9.6-21.3 28.4 14.33 35.826z"/><path d="m359.428 322.971-14.856-5.942 14.328-35.829-21.3-28.4 12.8-9.6 24 32a8 8 0 0 1 1.028 7.771z"/><path d="m285.537 276h60.926v16h-60.926z" transform="matrix(.394 -.919 .919 .394 -69.517 462.574)"/></g><path d="m197.657 282.343-24-24-11.314 11.314 10.344 10.343h-44.687v16h44.687l-10.344 10.343 11.314 11.314 24-24a8 8 0 0 0 0-11.314z" fill="#f55648"/><path d="m200 320a31.92 31.92 0 0 1 -10.666-1.823l5.332-15.086a16 16 0 1 0 0-30.182l-5.332-15.086a32 32 0 1 1 10.666 62.177z" fill="#37c9c3"/><path d="m240 344h16v16h-16z" fill="#34bdb7"/><path d="m272 344h32v16h-32z" fill="#34bdb7"/><path d="m240 376h48v16h-48z" fill="#34bdb7"/><path d="m304 376h37.436v16h-37.436z" fill="#34bdb7"/><path d="m320 344h24v16h-24z" fill="#34bdb7"/><rect fill="#c7463b" height="112" rx="10.889" width="112" x="24" y="232"/><path d="m56 264h48v48h-48z" fill="#f55648"/><path d="m408 56h8v360h-8z" fill="#37c9c3"/><path d="m478.74 408 2.64-4 14.62-22.14-2.46-4.27-13.54-23.45-31.27 1.88-14.01-28.02h-32l-14.01 28.02-31.27-1.88-13.54 23.45-2.46 4.27 14.62 22.14 2.64 4-14.8 22.41-2.46 3.73 16 27.72 31.27-1.88 14.01 28.02h32l14.01-28.02 31.27 1.88 16-27.72-2.46-3.73zm-85.02-8a25 25 0 1 1 49.68 4 25 25 0 1 1 -49.36 0 25.107 25.107 0 0 1 -.32-4z" fill="#da922a"/><path d="m481.38 404-2.64-4 14.8-22.41-13.54-23.45-31.27 1.88-14.01-28.02h-32l-14.01 28.02-31.27-1.88-13.54 23.45 14.8 22.41-2.64 4-14.62 22.14 2.46 4.27 13.54 23.45 31.27-1.88 14.01 28.02h32l14.01-28.02 31.27 1.88 13.54-23.45 2.46-4.27zm-37.98 0a25.012 25.012 0 1 1 .32-4 24.994 24.994 0 0 1 -.32 4z" fill="#f3af3e"/><path d="m376 104h120v16h-120z" fill="#fece2f"/><path d="m376 160h120v16h-120z" fill="#fece2f"/><path d="m448 160h48v16h-48z" fill="#da922a"/><path d="m424 104h72v16h-72z" fill="#da922a"/><circle cx="432" cy="112" fill="#fda332" r="16"/><circle cx="456" cy="168" fill="#fda332" r="16"/><rect fill="#e08122" height="112" rx="10.889" width="112" x="272" y="88"/><circle cx="328" cy="144" fill="#fda332" r="24"/><rect fill="#428dc5" height="112" rx="10.889" width="112" x="128" y="88"/><path d="m168 168 40-24-40-24z" fill="#6cbae5"/><path d="m288 448h-56a8 8 0 0 0 0 16h56a8 8 0 0 0 0-16z"/><path d="m138.889 208h90.222a18.911 18.911 0 0 0 18.889-18.889v-90.222a18.911 18.911 0 0 0 -18.889-18.889h-90.222a18.911 18.911 0 0 0 -18.889 18.889v90.222a18.911 18.911 0 0 0 18.889 18.889zm-2.889-109.111a2.892 2.892 0 0 1 2.889-2.889h90.222a2.892 2.892 0 0 1 2.889 2.889v90.222a2.892 2.892 0 0 1 -2.889 2.889h-90.222a2.892 2.892 0 0 1 -2.889-2.889z"/><path d="m272.572 322.971 14.856-5.942-14.328-35.829 21.3-28.4-12.8-9.6-24 32a8 8 0 0 0 -1.028 7.771z"/><path d="m344.572 317.029 14.856 5.942 16-40a8 8 0 0 0 -1.028-7.771l-24-32-12.8 9.6 21.3 28.4z"/><path d="m285.537 276h60.926v16h-60.926z" transform="matrix(.394 -.919 .919 .394 -69.517 462.574)"/><path d="m164.059 174.961a8 8 0 0 0 8.057-.1l40-24a8 8 0 0 0 0-13.72l-40-24a8 8 0 0 0 -12.116 6.859v48a8 8 0 0 0 4.059 6.961zm11.941-40.832 16.451 9.871-16.451 9.871z"/><path d="m328 112a32 32 0 1 0 32 32 32.036 32.036 0 0 0 -32-32zm0 48a16 16 0 1 1 16-16 16.019 16.019 0 0 1 -16 16z"/><path d="m200 256a31.92 31.92 0 0 0 -10.666 1.823l5.332 15.086a16 16 0 1 1 0 30.182l-5.332 15.086a32 32 0 1 0 10.666-62.177z"/><path d="m104 256h-48a8 8 0 0 0 -8 8v48a8 8 0 0 0 8 8h48a8 8 0 0 0 8-8v-48a8 8 0 0 0 -8-8zm-8 48h-32v-32h32z"/><path d="m502.928 377.856-16-27.712a8 8 0 0 0 -7.407-3.986l-26 1.56-11.648-23.3a8 8 0 0 0 -7.155-4.418h-10.718v-144h9.376a24 24 0 0 0 45.248 0h17.376v-16h-17.376a24 24 0 0 0 -45.248 0h-9.376v-25.376a23.985 23.985 0 0 0 30.624-14.624h41.376v-16h-41.376a23.985 23.985 0 0 0 -30.624-14.624v-49.376a24.027 24.027 0 0 0 -24-24h-288a24.027 24.027 0 0 0 -24 24v184h-53.111a18.911 18.911 0 0 0 -18.889 18.889v90.222a18.911 18.911 0 0 0 18.889 18.889h53.111v120a24.027 24.027 0 0 0 24 24h322.718a8 8 0 0 0 7.155-4.422l11.648-23.3 26 1.56a8 8 0 0 0 7.407-3.986l16-27.712a8 8 0 0 0 -.252-8.408l-14.351-21.732 14.351-21.736a8 8 0 0 0 .252-8.408zm-46.928-217.856a8 8 0 1 1 -8 8 8.009 8.009 0 0 1 8-8zm-24-56a8 8 0 1 1 -8 8 8.009 8.009 0 0 1 8-8zm-328-64a8.009 8.009 0 0 1 8-8h288a8.009 8.009 0 0 1 8 8v8h-304zm0 24h304v40h-16v-5.111a18.911 18.911 0 0 0 -18.889-18.889h-90.222a18.911 18.911 0 0 0 -18.889 18.889v90.222a18.911 18.911 0 0 0 18.889 18.889h90.222a18.911 18.911 0 0 0 18.889-18.889v-13.111h16v144h-5.282a8 8 0 0 0 -7.156 4.422l-11.648 23.3-26-1.56a8.017 8.017 0 0 0 -7.408 3.986l-14.926 25.852h-31.58v16h34.547l10.564 16-5.282 8h-239.829v-64h21.111a18.911 18.911 0 0 0 18.889-18.889v-37.111h28.687l-10.344 10.343 11.314 11.314 24-24a8 8 0 0 0 0-11.314l-24-24-11.314 11.314 10.344 10.343h-28.687v-37.111a18.911 18.911 0 0 0 -18.889-18.889h-21.111zm304 56v40h-16v-40zm-32-21.111v90.222a2.892 2.892 0 0 1 -2.889 2.889h-90.222a2.892 2.892 0 0 1 -2.889-2.889v-90.222a2.892 2.892 0 0 1 2.889-2.889h90.222a2.892 2.892 0 0 1 2.889 2.889zm-341.111 237.111a2.892 2.892 0 0 1 -2.889-2.889v-90.222a2.892 2.892 0 0 1 2.889-2.889h90.222a2.892 2.892 0 0 1 2.889 2.889v90.222a2.892 2.892 0 0 1 -2.889 2.889zm77.111 144a8.009 8.009 0 0 1 -8-8v-40h229.742a7.989 7.989 0 0 0 .766 6.144l16 27.712a8.005 8.005 0 0 0 7.408 3.986l26-1.56 5.857 11.718zm360.062-67.592 14.538 22.017-11.056 19.15-26.336-1.581a8 8 0 0 0 -7.635 4.408l-11.8 23.6h-22.111l-11.8-23.6a8.018 8.018 0 0 0 -7.635-4.408l-26.336 1.581-11.056-19.15 14.538-22.017a8 8 0 0 0 0-8.816l-14.538-22.017 11.056-19.15 26.336 1.581a8.019 8.019 0 0 0 7.635-4.408l11.8-23.6h22.111l11.8 23.6a8.009 8.009 0 0 0 7.635 4.408l26.336-1.581 11.056 19.15-14.538 22.017a8 8 0 0 0 0 8.816z"/><path d="m418.718 375a33 33 0 1 0 33 33 33.037 33.037 0 0 0 -33-33zm-10.718 41h-4.274a16.958 16.958 0 0 1 4.274-21.18zm16 8.149v-32.3a16.987 16.987 0 0 1 0 32.3z"/><path d="m240 344h16v16h-16z"/><path d="m272 344h32v16h-32z"/><path d="m240 376h48v16h-48z"/><path d="m320 344h24v16h-24z"/></g></svg>